<?xml version="1.0" encoding="UTF-8"?> <svg xmlns="http://www.w3.org/2000/svg" id="Layer_1" data-name="Layer 1" viewBox="0 0 384 384"><path d="M-11.933,340.944V19.056c1.612-1.038,1.317-2.917,1.842-4.4C-5.839,2.663,2.162-5.548,14.136-9.93c1.961-.718,4.252-.449,5.92-2H339.944c7.292,2.522,14.423,5.182,20.223,10.709,6.217,5.924,9.137,13.475,11.766,21.28V340.944c-2.774,6.279-4.912,12.837-9.665,18.133-6.08,6.776-13.909,10.264-22.324,12.856H19.056c-.456-1.177-1.61-.964-2.508-1.243C2.7,366.385-6.5,357.447-10.655,343.452-10.923,342.55-10.78,341.407-11.933,340.944Zm278.087-162.3c18.56-7.166,26.293-17.969,26.473-36.352.185-18.887-8.408-31.673-25.926-38.574-11.491-4.527-23.589-6.025-35.754-6.079-54.125-.243-108.251-.131-162.375-.32-4.055-.014-3.674,2.092-3.674,4.67q.026,77.193-.063,154.385c-.008,3.6.721,4.854,4.615,4.81q28.475-.321,56.955-.008c3.708.037,4.782-.889,4.729-4.674-.222-15.652-.063-31.309-.125-46.964-.009-2.4,0-4,3.275-3.978,25.813.148,51.629-.089,77.439.236,12.356.156,17.191,5.725,17.229,18.273.033,10.992.078,21.985-.041,32.975-.031,2.792.372,4.149,3.726,4.121,19.651-.16,39.3-.112,58.955-.039,2.463.009,3.574-.543,3.546-3.3-.144-13.988.406-28-.29-41.959-.758-15.2-8-26.884-21.784-34.05C271.02,180.763,268.877,179.893,266.154,178.647Z" transform="translate(12 12)" fill="#fdd903"></path><path d="M371.933,20.056C369.3,12.251,366.384,4.7,360.167-1.224c-5.8-5.527-12.931-8.187-20.223-10.709,9.83,0,19.661.083,29.489-.065,2.151-.033,2.6.413,2.565,2.565C371.849.4,371.933,10.226,371.933,20.056Z" transform="translate(12 12)" fill="#f9f8f7"></path><path d="M339.944,371.933c8.415-2.592,16.244-6.08,22.324-12.856,4.753-5.3,6.891-11.854,9.665-18.133,0,9.5-.086,18.994.065,28.489.035,2.152-.414,2.6-2.565,2.565C359.605,371.849,349.774,371.933,339.944,371.933Z" transform="translate(12 12)" fill="#f9f8f7"></path><path d="M20.056-11.933c-1.668,1.554-3.959,1.285-5.92,2C2.162-5.548-5.839,2.663-10.091,14.657c-.525,1.482-.23,3.361-1.842,4.4,0-9.5.086-18.995-.065-28.489-.035-2.152.414-2.6,2.565-2.565C.4-11.85,10.226-11.933,20.056-11.933Z" transform="translate(12 12)" fill="#f9f8f7"></path><path d="M-11.933,340.944c1.153.463,1.01,1.606,1.278,2.508,4.151,14,13.352,22.933,27.2,27.238.9.279,2.052.066,2.508,1.243-9.5,0-18.994-.086-28.489.065-2.152.035-2.6-.413-2.565-2.565C-11.847,359.938-11.933,350.44-11.933,340.944Z" transform="translate(12 12)" fill="#f9f8f7"></path><path d="M266.154,178.647c2.723,1.246,4.866,2.116,6.91,3.178,13.783,7.166,21.026,18.852,21.784,34.05.7,13.956.146,27.971.29,41.959.028,2.752-1.083,3.3-3.546,3.3-19.652-.073-39.3-.121-58.955.039-3.354.028-3.757-1.329-3.726-4.121.119-10.99.074-21.983.041-32.975-.038-12.548-4.873-18.117-17.229-18.273-25.81-.325-51.626-.088-77.439-.236-3.276-.019-3.284,1.583-3.275,3.978.062,15.655-.1,31.312.125,46.964.053,3.785-1.021,4.711-4.729,4.674q-28.476-.286-56.955.008c-3.894.044-4.623-1.213-4.615-4.81Q65,179.186,64.9,101.992c0-2.578-.381-4.684,3.674-4.67,54.124.189,108.25.077,162.375.32,12.165.054,24.263,1.552,35.754,6.079,17.518,6.9,26.111,19.687,25.926,38.574C292.447,160.678,284.714,171.481,266.154,178.647ZM174.511,145.41H142.093c-11.1,0-10.948,0-11.138,11.1-.064,3.762.775,5.071,4.837,5.039,25.1-.2,50.206-.073,75.309-.134a35.716,35.716,0,0,0,8.4-.846c3.69-.908,5.4-3.685,5.248-7.47-.141-3.555-1.853-6.1-5.426-6.8a45.425,45.425,0,0,0-8.405-.846C198.783,145.362,186.647,145.412,174.511,145.41Z" transform="translate(12 12)" fill="#020200"></path><path d="M174.511,145.411c12.136,0,24.272-.049,36.408.039a45.425,45.425,0,0,1,8.405.846c3.573.7,5.285,3.245,5.426,6.8.149,3.785-1.558,6.562-5.248,7.47a35.716,35.716,0,0,1-8.4.846c-25.1.061-50.207-.062-75.309.134-4.062.032-4.9-1.277-4.837-5.039.19-11.094.036-11.1,11.138-11.1Z" transform="translate(12 12)" fill="#fdd903"></path></svg> 