<?xml version="1.0" encoding="UTF-8"?> <svg xmlns="http://www.w3.org/2000/svg" viewBox="0 0 176 124"><g id="Layer_2" data-name="Layer 2"><g id="Layer_1-2" data-name="Layer 1"><path d="M172.322,19.363A22.113,22.113,0,0,0,156.762,3.7C143.037,0,88,0,88,0S32.963,0,19.238,3.7A22.113,22.113,0,0,0,3.678,19.363C0,33.177,0,62,0,62s0,28.823,3.678,42.637A22.113,22.113,0,0,0,19.238,120.3C32.963,124,88,124,88,124s55.037,0,68.762-3.7a22.113,22.113,0,0,0,15.56-15.661C176,90.823,176,62,176,62S176,33.177,172.322,19.363Z" fill="red"></path><polygon points="70 88.169 116 62.001 70 35.831 70 88.169" fill="#fff"></polygon></g></g></svg> 